# xmcd
#
# Track frame offsets:
#   150
#   9921
#   20482
#   30449
#   39286
#   50370
#   62545
#   72823
#   83750
#   95151
#   105516
#   115358
#   124843
#   138877
#   147772
#   157028
#   166033
#   178839
#   189721
#   201020
#   211467
#   222801
#   233924
#   245450
#   256626
#   268619
#   280765
#   291853
#   304196
#   314811
#   324625
#
# Disc length: 4467 seconds
#
# Revision: 0
# Processed by: cddbd v1.5.2PL0 Copyright (c) Steve Scherf et al.
# Submitted via: uFREEDB ActiveX Control 1.5
#
DISCID=ba11711f
DTITLE=T.V. Slim - Flatfoot Sam
DYEAR=1950
DGENRE=Blues
TTITLE0=Flatfoot Sam (#2)
TTITLE1=Flatfoot Sam Meets Jim Dandy
TTITLE2=Darling Forever
TTITLE3=To Prove My Love
TTITLE4=My Baby Is Gone
TTITLE5=Gravy Round Your Steak
TTITLE6=You Can't Love Me
TTITLE7=Hold Me Close To Your Heart
TTITLE8=Rockin' Little Baby
TTITLE9=Tired Of Your Cheatin' And Lyin'
TTITLE10=My Ship Is Sinking
TTITLE11=Snake Dance
TTITLE12=T.V Man
TTITLE13=Flatfoot Sam Is Back
TTITLE14=Don't Reach Across My Plate
TTITLE15=Every Man Needs A Woman
TTITLE16=Can't Be Satisfied
TTITLE17=Juvenile Delinquent
TTITLE18=You Just Won't Treat Me Right
TTITLE19=I'm A Real Man
TTITLE20=You Can't Buy Love
TTITLE21=Love Bounce
TTITLE22=The Fight
TTITLE23=Bad Understanding Blues
TTITLE24=You Can't By A Woman
TTITLE25=Going To California
TTITLE26=Henpcked Joe
TTITLE27=Don't Knock The Blues
TTITLE28=Dancing Senorita
TTITLE29=Your Kisses Changed Me
TTITLE30=Flatfoot Sam
EXTD=
EXTT0=
EXTT1=
EXTT2=
EXTT3=
EXTT4=
EXTT5=
EXTT6=
EXTT7=
EXTT8=
EXTT9=
EXTT10=
EXTT11=
EXTT12=
EXTT13=
EXTT14=
EXTT15=
EXTT16=
EXTT17=
EXTT18=
EXTT19=
EXTT20=
EXTT21=
EXTT22=
EXTT23=
EXTT24=
EXTT25=
EXTT26=
EXTT27=
EXTT28=
EXTT29=
EXTT30=
PLAYORDER=
